{
    "asset" : {
        "generator" : "Khronos glTF Blender I/O v1.4.40",
        "version" : "2.0"
    },
    "scene" : 0,
    "scenes" : [
        {
            "name" : "Scene",
            "nodes" : [
                0
            ]
        }
    ],
    "nodes" : [
        {
            "mesh" : 0,
            "name" : "Circle",
            "rotation" : [
                0,
                0.6508415341377258,
                0,
                0.7592136263847351
            ]
        }
    ],
    "materials" : [
        {
            "doubleSided" : true,
            "name" : "Material.002",
            "pbrMetallicRoughness" : {}
        }
    ],
    "meshes" : [
        {
            "name" : "Circle",
            "primitives" : [
                {
                    "attributes" : {
                        "POSITION" : 0,
                        "NORMAL" : 1
                    },
                    "indices" : 2,
                    "material" : 0
                }
            ]
        }
    ],
    "accessors" : [
        {
            "bufferView" : 0,
            "componentType" : 5126,
            "count" : 266,
            "max" : [
                1.9756741523742676,
                2.0048089027404785,
                0.9727985262870789
            ],
            "min" : [
                -0.9727985262870789,
                0,
                -0.9727985858917236
            ],
            "type" : "VEC3"
        },
        {
            "bufferView" : 1,
            "componentType" : 5126,
            "count" : 266,
            "type" : "VEC3"
        },
        {
            "bufferView" : 2,
            "componentType" : 5123,
            "count" : 1596,
            "type" : "SCALAR"
        }
    ],
    "bufferViews" : [
        {
            "buffer" : 0,
            "byteLength" : 3192,
            "byteOffset" : 0
        },
        {
            "buffer" : 0,
            "byteLength" : 3192,
            "byteOffset" : 3192
        },
        {
            "buffer" : 0,
            "byteLength" : 3192,
            "byteOffset" : 6384
        }
    ],
    "buffers" : [
        {
            "byteLength" : 9576,
            "uri" : "data:application/octet-stream;base64,"
        }
    ]
}
