{
    "asset" : {
        "generator" : "Khronos glTF Blender I/O v1.4.40",
        "version" : "2.0"
    },
    "scene" : 0,
    "scenes" : [
        {
            "name" : "Scene",
            "nodes" : [
                7
            ]
        }
    ],
    "nodes" : [
        {
            "mesh" : 0,
            "name" : "Circle_0"
        },
        {
            "mesh" : 1,
            "name" : "Circle_1"
        },
        {
            "mesh" : 2,
            "name" : "Circle_2"
        },
        {
            "mesh" : 3,
            "name" : "Circle_3"
        },
        {
            "mesh" : 4,
            "name" : "Circle_4"
        },
        {
            "children" : [
                0,
                1,
                2,
                3,
                4
            ],
            "name" : "Circle"
        },
        {
            "children" : [
                5
            ],
            "name" : "Root"
        },
        {
            "children" : [
                6
            ],
            "name" : "Sketchfab_model",
            "rotation" : [
                -0.7071068286895752,
                0,
                0,
                0.7071068286895752
            ],
            "scale" : [
                0.297390341758728,
                0.297390341758728,
                0.297390341758728
            ]
        }
    ],
    "materials" : [
        {
            "doubleSided" : true,
            "name" : "Ance.001",
            "pbrMetallicRoughness" : {
                "roughnessFactor" : 0.10000000149011612
            }
        },
        {
            "doubleSided" : true,
            "name" : "Body.001",
            "pbrMetallicRoughness" : {
                "baseColorFactor" : [
                    0.009721217676997185,
                    0.009721217676997185,
                    0.009721217676997185,
                    1
                ],
                "roughnessFactor" : 0.30000001192092896
            }
        },
        {
            "doubleSided" : true,
            "name" : "Inside.001",
            "pbrMetallicRoughness" : {
                "baseColorFactor" : [
                    0.039546236395835876,
                    0.002124688820913434,
                    0.10224173218011856,
                    1
                ],
                "roughnessFactor" : 0.5
            }
        },
        {
            "doubleSided" : true,
            "name" : "Bottom_1.001",
            "pbrMetallicRoughness" : {
                "baseColorFactor" : [
                    0.4564110338687897,
                    0.41788506507873535,
                    0.366252601146698,
                    1
                ],
                "metallicFactor" : 0,
                "roughnessFactor" : 0.6873165965080261
            }
        },
        {
            "doubleSided" : true,
            "name" : "Bottom_2.001",
            "pbrMetallicRoughness" : {
                "roughnessFactor" : 0.699999988079071
            }
        }
    ],
    "meshes" : [
        {
            "name" : "Circle_0.001",
            "primitives" : [
                {
                    "attributes" : {
                        "POSITION" : 0,
                        "NORMAL" : 1
                    },
                    "indices" : 2,
                    "material" : 0
                }
            ]
        },
        {
            "name" : "Circle_1.001",
            "primitives" : [
                {
                    "attributes" : {
                        "POSITION" : 3,
                        "NORMAL" : 4
                    },
                    "indices" : 5,
                    "material" : 1
                }
            ]
        },
        {
            "name" : "Circle_2.001",
            "primitives" : [
                {
                    "attributes" : {
                        "POSITION" : 6,
                        "NORMAL" : 7
                    },
                    "indices" : 8,
                    "material" : 2
                }
            ]
        },
        {
            "name" : "Circle_3.001",
            "primitives" : [
                {
                    "attributes" : {
                        "POSITION" : 9,
                        "NORMAL" : 10
                    },
                    "indices" : 11,
                    "material" : 3
                }
            ]
        },
        {
            "name" : "Circle_4.001",
            "primitives" : [
                {
                    "attributes" : {
                        "POSITION" : 12,
                        "NORMAL" : 13
                    },
                    "indices" : 14,
                    "material" : 4
                }
            ]
        }
    ],
    "accessors" : [
        {
            "bufferView" : 0,
            "componentType" : 5126,
            "count" : 3552,
            "max" : [
                0.19065000116825104,
                1.7165800333023071,
                1.9368699789047241
            ],
            "min" : [
                -0.1906599998474121,
                0.6729900240898132,
                0.165460005402565
            ],
            "type" : "VEC3"
        },
        {
            "bufferView" : 1,
            "componentType" : 5126,
            "count" : 3552,
            "type" : "VEC3"
        },
        {
            "bufferView" : 2,
            "componentType" : 5123,
            "count" : 21120,
            "type" : "SCALAR"
        },
        {
            "bufferView" : 3,
            "componentType" : 5126,
            "count" : 4334,
            "max" : [
                0.9517499804496765,
                1.0069199800491333,
                2.249239921569824
            ],
            "min" : [
                -0.9517499804496765,
                -0.9512799978256226,
                0.012570000253617764
            ],
            "type" : "VEC3"
        },
        {
            "bufferView" : 4,
            "componentType" : 5126,
            "count" : 4334,
            "type" : "VEC3"
        },
        {
            "bufferView" : 5,
            "componentType" : 5123,
            "count" : 25344,
            "type" : "SCALAR"
        },
        {
            "bufferView" : 6,
            "componentType" : 5126,
            "count" : 3401,
            "max" : [
                0.8958899974822998,
                0.8954399824142456,
                2.249239921569824
            ],
            "min" : [
                -0.8958899974822998,
                -0.8954399824142456,
                0.08297999948263168
            ],
            "type" : "VEC3"
        },
        {
            "bufferView" : 7,
            "componentType" : 5126,
            "count" : 3401,
            "type" : "VEC3"
        },
        {
            "bufferView" : 8,
            "componentType" : 5123,
            "count" : 20160,
            "type" : "SCALAR"
        },
        {
            "bufferView" : 9,
            "componentType" : 5126,
            "count" : 720,
            "max" : [
                0.5663899779319763,
                0.566100001335144,
                0.012570000253617764
            ],
            "min" : [
                -0.5663899779319763,
                -0.566100001335144,
                0.002739999908953905
            ],
            "type" : "VEC3"
        },
        {
            "bufferView" : 10,
            "componentType" : 5126,
            "count" : 720,
            "type" : "VEC3"
        },
        {
            "bufferView" : 11,
            "componentType" : 5123,
            "count" : 3840,
            "type" : "SCALAR"
        },
        {
            "bufferView" : 12,
            "componentType" : 5126,
            "count" : 841,
            "max" : [
                0.4968099892139435,
                0.4965600073337555,
                0.06134000048041344
            ],
            "min" : [
                -0.4968099892139435,
                -0.4965600073337555,
                0.010449999943375587
            ],
            "type" : "VEC3"
        },
        {
            "bufferView" : 13,
            "componentType" : 5126,
            "count" : 841,
            "type" : "VEC3"
        },
        {
            "bufferView" : 14,
            "componentType" : 5123,
            "count" : 4800,
            "type" : "SCALAR"
        }
    ],
    "bufferViews" : [
        {
            "buffer" : 0,
            "byteLength" : 42624,
            "byteOffset" : 0
        },
        {
            "buffer" : 0,
            "byteLength" : 42624,
            "byteOffset" : 42624
        },
        {
            "buffer" : 0,
            "byteLength" : 42240,
            "byteOffset" : 85248
        },
        {
            "buffer" : 0,
            "byteLength" : 52008,
            "byteOffset" : 127488
        },
        {
            "buffer" : 0,
            "byteLength" : 52008,
            "byteOffset" : 179496
        },
        {
            "buffer" : 0,
            "byteLength" : 50688,
            "byteOffset" : 231504
        },
        {
            "buffer" : 0,
            "byteLength" : 40812,
            "byteOffset" : 282192
        },
        {
            "buffer" : 0,
            "byteLength" : 40812,
            "byteOffset" : 323004
        },
        {
            "buffer" : 0,
            "byteLength" : 40320,
            "byteOffset" : 363816
        },
        {
            "buffer" : 0,
            "byteLength" : 8640,
            "byteOffset" : 404136
        },
        {
            "buffer" : 0,
            "byteLength" : 8640,
            "byteOffset" : 412776
        },
        {
            "buffer" : 0,
            "byteLength" : 7680,
            "byteOffset" : 421416
        },
        {
            "buffer" : 0,
            "byteLength" : 10092,
            "byteOffset" : 429096
        },
        {
            "buffer" : 0,
            "byteLength" : 10092,
            "byteOffset" : 439188
        },
        {
            "buffer" : 0,
            "byteLength" : 9600,
            "byteOffset" : 449280
        }
    ],
    "buffers" : [
        {
            "byteLength" : 458880,
            "uri" : "data:application/octet-stream;base64,"
        }
    ]
}
