{
    "asset" : {
        "generator" : "Khronos glTF Blender I/O v1.4.40",
        "version" : "2.0"
    },
    "scene" : 0,
    "scenes" : [
        {
            "name" : "Scene",
            "nodes" : [
                27
            ]
        }
    ],
    "nodes" : [
        {
            "name" : "__4right_3"
        },
        {
            "children" : [
                0
            ],
            "name" : "__4right_2",
            "rotation" : [
                0.14208315312862396,
                -0.33170390129089355,
                -0.05060898885130882,
                0.9312484264373779
            ],
            "translation" : [
                -6.786400318145752,
                2.695249557495117,
                -725.4589233398438
            ]
        },
        {
            "mesh" : 0,
            "name" : "baseballCap.001"
        },
        {
            "children" : [
                2
            ],
            "name" : "bill",
            "rotation" : [
                -0.0804288238286972,
                0,
                0,
                0.996760368347168
            ],
            "scale" : [
                20.117799758911133,
                20.117876052856445,
                20.117876052856445
            ],
            "translation" : [
                0.005417000036686659,
                -2.9004499912261963,
                -11.842300415039062
            ]
        },
        {
            "name" : "Default_Camera1"
        },
        {
            "children" : [
                4
            ],
            "name" : "Default_Camera",
            "translation" : [
                0.00535399978980422,
                -59.432701110839844,
                -699.1199951171875
            ]
        },
        {
            "name" : "Image_Based_Light_1.001"
        },
        {
            "children" : [
                6
            ],
            "name" : "Image_Based_Light_1"
        },
        {
            "name" : "Infinite_Light_1.001"
        },
        {
            "children" : [
                8
            ],
            "name" : "Infinite_Light_1",
            "rotation" : [
                0.6551916003227234,
                -0.1661895215511322,
                -0.15095144510269165,
                0.7213311791419983
            ],
            "translation" : [
                13.419215202331543,
                35.56449508666992,
                -149.63807678222656
            ]
        },
        {
            "name" : "Infinite_Light_2.001"
        },
        {
            "children" : [
                10
            ],
            "name" : "Infinite_Light_2",
            "rotation" : [
                0.011536901816725731,
                -0.7075437307357788,
                -0.011554257944226265,
                0.7064809203147888
            ],
            "translation" : [
                13.67133617401123,
                -14.492179870605469,
                -83.28404235839844
            ]
        },
        {
            "name" : "Infinite_Light_3.001"
        },
        {
            "children" : [
                12
            ],
            "name" : "Infinite_Light_3",
            "rotation" : [
                -0.24577432870864868,
                0.6856985688209534,
                -0.6309228539466858,
                0.2671121060848236
            ],
            "translation" : [
                1.2126219272613525,
                2.363225221633911,
                -99.0661392211914
            ]
        },
        {
            "mesh" : 1,
            "name" : "baseballCap.002"
        },
        {
            "children" : [
                14
            ],
            "name" : "innerLiner",
            "rotation" : [
                -0.0804288238286972,
                0,
                0,
                0.996760368347168
            ],
            "scale" : [
                20.117799758911133,
                20.117876052856445,
                20.117876052856445
            ],
            "translation" : [
                0.005417000036686659,
                -2.9004299640655518,
                -11.842399597167969
            ]
        },
        {
            "mesh" : 2,
            "name" : "baseballCap.003"
        },
        {
            "children" : [
                16
            ],
            "name" : "mainCap",
            "rotation" : [
                -0.0804288238286972,
                0,
                0,
                0.996760368347168
            ],
            "scale" : [
                20.117799758911133,
                20.117876052856445,
                20.117876052856445
            ],
            "translation" : [
                0.005417000036686659,
                -2.9004199504852295,
                -11.842399597167969
            ]
        },
        {
            "mesh" : 3,
            "name" : "blinn1SG"
        },
        {
            "children" : [
                18
            ],
            "name" : "metalButton",
            "rotation" : [
                -0.0804288238286972,
                0,
                0,
                0.996760368347168
            ],
            "scale" : [
                20.117799758911133,
                20.117876052856445,
                20.117876052856445
            ],
            "translation" : [
                0.005417000036686659,
                -2.9003899097442627,
                -11.842399597167969
            ]
        },
        {
            "mesh" : 4,
            "name" : "plastic.001"
        },
        {
            "children" : [
                20
            ],
            "name" : "strapAdjust_female",
            "rotation" : [
                -0.0804288238286972,
                0,
                0,
                0.996760368347168
            ],
            "scale" : [
                20.117799758911133,
                20.117876052856445,
                20.117876052856445
            ],
            "translation" : [
                0.0054259998723864555,
                -2.9004499912261963,
                -11.842499732971191
            ]
        },
        {
            "mesh" : 5,
            "name" : "plastic"
        },
        {
            "children" : [
                22
            ],
            "name" : "strapAdjust_male",
            "rotation" : [
                -0.0804288238286972,
                0,
                0,
                0.996760368347168
            ],
            "scale" : [
                20.117799758911133,
                20.117876052856445,
                20.117876052856445
            ],
            "translation" : [
                0.005413000006228685,
                -2.900439977645874,
                -11.842399597167969
            ]
        },
        {
            "mesh" : 6,
            "name" : "baseballCap"
        },
        {
            "children" : [
                24
            ],
            "name" : "topButton",
            "rotation" : [
                -0.0804288238286972,
                0,
                0,
                0.996760368347168
            ],
            "scale" : [
                20.117799758911133,
                20.117876052856445,
                20.117876052856445
            ],
            "translation" : [
                0.005417000036686659,
                -2.9003899097442627,
                -11.842399597167969
            ]
        },
        {
            "children" : [
                1,
                3,
                5,
                7,
                9,
                11,
                13,
                15,
                17,
                19,
                21,
                23,
                25
            ],
            "name" : "Collada visual scene group",
            "rotation" : [
                0.7071068286895752,
                0,
                0,
                0.7071068286895752
            ]
        },
        {
            "children" : [
                26
            ],
            "name" : "Sketchfab_model",
            "rotation" : [
                -0.7071068286895752,
                0,
                0,
                0.7071068286895752
            ]
        }
    ],
    "materials" : [
        {
            "name" : "baseballCap",
            "pbrMetallicRoughness" : {}
        },
        {
            "doubleSided" : true,
            "name" : "blinn1SG",
            "pbrMetallicRoughness" : {}
        },
        {
            "doubleSided" : true,
            "name" : "plastic",
            "pbrMetallicRoughness" : {}
        }
    ],
    "meshes" : [
        {
            "name" : "baseballCap.001",
            "primitives" : [
                {
                    "attributes" : {
                        "POSITION" : 0,
                        "NORMAL" : 1,
                        "TEXCOORD_0" : 2,
                        "TEXCOORD_1" : 3,
                        "TEXCOORD_2" : 4
                    },
                    "indices" : 5,
                    "material" : 0
                }
            ]
        },
        {
            "name" : "baseballCap.002",
            "primitives" : [
                {
                    "attributes" : {
                        "POSITION" : 6,
                        "NORMAL" : 7,
                        "TEXCOORD_0" : 8,
                        "TEXCOORD_1" : 9,
                        "TEXCOORD_2" : 10
                    },
                    "indices" : 11,
                    "material" : 0
                }
            ]
        },
        {
            "name" : "baseballCap.003",
            "primitives" : [
                {
                    "attributes" : {
                        "POSITION" : 12,
                        "NORMAL" : 13,
                        "TEXCOORD_0" : 14,
                        "TEXCOORD_1" : 15,
                        "TEXCOORD_2" : 16
                    },
                    "indices" : 17,
                    "material" : 0
                }
            ]
        },
        {
            "name" : "blinn1SG",
            "primitives" : [
                {
                    "attributes" : {
                        "POSITION" : 18,
                        "NORMAL" : 19,
                        "TEXCOORD_0" : 20
                    },
                    "indices" : 21,
                    "material" : 1
                }
            ]
        },
        {
            "name" : "plastic.001",
            "primitives" : [
                {
                    "attributes" : {
                        "POSITION" : 22,
                        "NORMAL" : 23,
                        "TEXCOORD_0" : 24
                    },
                    "indices" : 25,
                    "material" : 2
                }
            ]
        },
        {
            "name" : "plastic",
            "primitives" : [
                {
                    "attributes" : {
                        "POSITION" : 26,
                        "NORMAL" : 27,
                        "TEXCOORD_0" : 28
                    },
                    "indices" : 29,
                    "material" : 2
                }
            ]
        },
        {
            "name" : "baseballCap",
            "primitives" : [
                {
                    "attributes" : {
                        "POSITION" : 30,
                        "NORMAL" : 31,
                        "TEXCOORD_0" : 32,
                        "TEXCOORD_1" : 33,
                        "TEXCOORD_2" : 34
                    },
                    "indices" : 35,
                    "material" : 0
                }
            ]
        }
    ],
    "accessors" : [
        {
            "bufferView" : 0,
            "componentType" : 5126,
            "count" : 3714,
            "max" : [
                4.30580997467041,
                0.7432489991188049,
                8.23231029510498
            ],
            "min" : [
                -4.30417013168335,
                -1.7730400562286377,
                1.8872100114822388
            ],
            "type" : "VEC3"
        },
        {
            "bufferView" : 1,
            "componentType" : 5126,
            "count" : 3714,
            "type" : "VEC3"
        },
        {
            "bufferView" : 2,
            "componentType" : 5126,
            "count" : 3714,
            "type" : "VEC2"
        },
        {
            "bufferView" : 3,
            "componentType" : 5126,
            "count" : 3714,
            "type" : "VEC2"
        },
        {
            "bufferView" : 4,
            "componentType" : 5126,
            "count" : 3714,
            "type" : "VEC2"
        },
        {
            "bufferView" : 5,
            "componentType" : 5123,
            "count" : 21312,
            "type" : "SCALAR"
        },
        {
            "bufferView" : 6,
            "componentType" : 5126,
            "count" : 7322,
            "max" : [
                4.6697797775268555,
                2.086250066757202,
                4.771729946136475
            ],
            "min" : [
                -4.676630020141602,
                0.03229900076985359,
                -4.399940013885498
            ],
            "type" : "VEC3"
        },
        {
            "bufferView" : 7,
            "componentType" : 5126,
            "count" : 7322,
            "type" : "VEC3"
        },
        {
            "bufferView" : 8,
            "componentType" : 5126,
            "count" : 7322,
            "type" : "VEC2"
        },
        {
            "bufferView" : 9,
            "componentType" : 5126,
            "count" : 7322,
            "type" : "VEC2"
        },
        {
            "bufferView" : 10,
            "componentType" : 5126,
            "count" : 7322,
            "type" : "VEC2"
        },
        {
            "bufferView" : 11,
            "componentType" : 5123,
            "count" : 42240,
            "type" : "SCALAR"
        },
        {
            "bufferView" : 12,
            "componentType" : 5126,
            "count" : 11572,
            "max" : [
                4.741990089416504,
                5.843490123748779,
                4.820419788360596
            ],
            "min" : [
                -4.743060111999512,
                0.03946800157427788,
                -4.536280155181885
            ],
            "type" : "VEC3"
        },
        {
            "bufferView" : 13,
            "componentType" : 5126,
            "count" : 11572,
            "type" : "VEC3"
        },
        {
            "bufferView" : 14,
            "componentType" : 5126,
            "count" : 11572,
            "type" : "VEC2"
        },
        {
            "bufferView" : 15,
            "componentType" : 5126,
            "count" : 11572,
            "type" : "VEC2"
        },
        {
            "bufferView" : 16,
            "componentType" : 5126,
            "count" : 11572,
            "type" : "VEC2"
        },
        {
            "bufferView" : 17,
            "componentType" : 5123,
            "count" : 66816,
            "type" : "SCALAR"
        },
        {
            "bufferView" : 18,
            "componentType" : 5126,
            "count" : 114,
            "max" : [
                0.2940559983253479,
                5.738900184631348,
                0.4749700129032135
            ],
            "min" : [
                -0.2940559983253479,
                5.601940155029297,
                -0.10921599715948105
            ],
            "type" : "VEC3"
        },
        {
            "bufferView" : 19,
            "componentType" : 5126,
            "count" : 114,
            "type" : "VEC3"
        },
        {
            "bufferView" : 20,
            "componentType" : 5126,
            "count" : 114,
            "type" : "VEC2"
        },
        {
            "bufferView" : 21,
            "componentType" : 5123,
            "count" : 576,
            "type" : "SCALAR"
        },
        {
            "bufferView" : 22,
            "componentType" : 5126,
            "count" : 16209,
            "max" : [
                2.5170300006866455,
                0.9993630051612854,
                -4.015669822692871
            ],
            "min" : [
                -0.7686460018157959,
                0.10003600269556046,
                -4.929930210113525
            ],
            "type" : "VEC3"
        },
        {
            "bufferView" : 23,
            "componentType" : 5126,
            "count" : 16209,
            "type" : "VEC3"
        },
        {
            "bufferView" : 24,
            "componentType" : 5126,
            "count" : 16209,
            "type" : "VEC2"
        },
        {
            "bufferView" : 25,
            "componentType" : 5123,
            "count" : 86208,
            "type" : "SCALAR"
        },
        {
            "bufferView" : 26,
            "componentType" : 5126,
            "count" : 11939,
            "max" : [
                0.9006019830703735,
                0.9951220154762268,
                -4.107150077819824
            ],
            "min" : [
                -2.32600998878479,
                0.09323500096797943,
                -4.914639949798584
            ],
            "type" : "VEC3"
        },
        {
            "bufferView" : 27,
            "componentType" : 5126,
            "count" : 11939,
            "type" : "VEC3"
        },
        {
            "bufferView" : 28,
            "componentType" : 5126,
            "count" : 11939,
            "type" : "VEC2"
        },
        {
            "bufferView" : 29,
            "componentType" : 5123,
            "count" : 60096,
            "type" : "SCALAR"
        },
        {
            "bufferView" : 30,
            "componentType" : 5126,
            "count" : 418,
            "max" : [
                0.3573029935359955,
                5.941400051116943,
                0.553309977054596
            ],
            "min" : [
                -0.3573029935359955,
                5.64640998840332,
                -0.15652400255203247
            ],
            "type" : "VEC3"
        },
        {
            "bufferView" : 31,
            "componentType" : 5126,
            "count" : 418,
            "type" : "VEC3"
        },
        {
            "bufferView" : 32,
            "componentType" : 5126,
            "count" : 418,
            "type" : "VEC2"
        },
        {
            "bufferView" : 33,
            "componentType" : 5126,
            "count" : 418,
            "type" : "VEC2"
        },
        {
            "bufferView" : 34,
            "componentType" : 5126,
            "count" : 418,
            "type" : "VEC2"
        },
        {
            "bufferView" : 35,
            "componentType" : 5123,
            "count" : 2304,
            "type" : "SCALAR"
        }
    ],
    "bufferViews" : [
        {
            "buffer" : 0,
            "byteLength" : 44568,
            "byteOffset" : 0
        },
        {
            "buffer" : 0,
            "byteLength" : 44568,
            "byteOffset" : 44568
        },
        {
            "buffer" : 0,
            "byteLength" : 29712,
            "byteOffset" : 89136
        },
        {
            "buffer" : 0,
            "byteLength" : 29712,
            "byteOffset" : 118848
        },
        {
            "buffer" : 0,
            "byteLength" : 29712,
            "byteOffset" : 148560
        },
        {
            "buffer" : 0,
            "byteLength" : 42624,
            "byteOffset" : 178272
        },
        {
            "buffer" : 0,
            "byteLength" : 87864,
            "byteOffset" : 220896
        },
        {
            "buffer" : 0,
            "byteLength" : 87864,
            "byteOffset" : 308760
        },
        {
            "buffer" : 0,
            "byteLength" : 58576,
            "byteOffset" : 396624
        },
        {
            "buffer" : 0,
            "byteLength" : 58576,
            "byteOffset" : 455200
        },
        {
            "buffer" : 0,
            "byteLength" : 58576,
            "byteOffset" : 513776
        },
        {
            "buffer" : 0,
            "byteLength" : 84480,
            "byteOffset" : 572352
        },
        {
            "buffer" : 0,
            "byteLength" : 138864,
            "byteOffset" : 656832
        },
        {
            "buffer" : 0,
            "byteLength" : 138864,
            "byteOffset" : 795696
        },
        {
            "buffer" : 0,
            "byteLength" : 92576,
            "byteOffset" : 934560
        },
        {
            "buffer" : 0,
            "byteLength" : 92576,
            "byteOffset" : 1027136
        },
        {
            "buffer" : 0,
            "byteLength" : 92576,
            "byteOffset" : 1119712
        },
        {
            "buffer" : 0,
            "byteLength" : 133632,
            "byteOffset" : 1212288
        },
        {
            "buffer" : 0,
            "byteLength" : 1368,
            "byteOffset" : 1345920
        },
        {
            "buffer" : 0,
            "byteLength" : 1368,
            "byteOffset" : 1347288
        },
        {
            "buffer" : 0,
            "byteLength" : 912,
            "byteOffset" : 1348656
        },
        {
            "buffer" : 0,
            "byteLength" : 1152,
            "byteOffset" : 1349568
        },
        {
            "buffer" : 0,
            "byteLength" : 194508,
            "byteOffset" : 1350720
        },
        {
            "buffer" : 0,
            "byteLength" : 194508,
            "byteOffset" : 1545228
        },
        {
            "buffer" : 0,
            "byteLength" : 129672,
            "byteOffset" : 1739736
        },
        {
            "buffer" : 0,
            "byteLength" : 172416,
            "byteOffset" : 1869408
        },
        {
            "buffer" : 0,
            "byteLength" : 143268,
            "byteOffset" : 2041824
        },
        {
            "buffer" : 0,
            "byteLength" : 143268,
            "byteOffset" : 2185092
        },
        {
            "buffer" : 0,
            "byteLength" : 95512,
            "byteOffset" : 2328360
        },
        {
            "buffer" : 0,
            "byteLength" : 120192,
            "byteOffset" : 2423872
        },
        {
            "buffer" : 0,
            "byteLength" : 5016,
            "byteOffset" : 2544064
        },
        {
            "buffer" : 0,
            "byteLength" : 5016,
            "byteOffset" : 2549080
        },
        {
            "buffer" : 0,
            "byteLength" : 3344,
            "byteOffset" : 2554096
        },
        {
            "buffer" : 0,
            "byteLength" : 3344,
            "byteOffset" : 2557440
        },
        {
            "buffer" : 0,
            "byteLength" : 3344,
            "byteOffset" : 2560784
        },
        {
            "buffer" : 0,
            "byteLength" : 4608,
            "byteOffset" : 2564128
        }
    ],
    "buffers" : [
        {
            "byteLength" : 2568736,
            "uri" : "data:application/octet-stream;base64,"
        }
    ]
}
