{
    "asset" : {
        "generator" : "Khronos glTF Blender I/O v1.4.40",
        "version" : "2.0"
    },
    "scene" : 0,
    "scenes" : [
        {
            "name" : "Scene",
            "nodes" : [
                15,
                16
            ]
        }
    ],
    "nodes" : [
        {
            "mesh" : 0,
            "name" : "baseballCap.001"
        },
        {
            "children" : [
                0
            ],
            "name" : "bill",
            "rotation" : [
                -0.0804288238286972,
                0,
                0,
                0.996760368347168
            ],
            "scale" : [
                20.117799758911133,
                20.117876052856445,
                20.117876052856445
            ],
            "translation" : [
                0.005417000036686659,
                -2.9004499912261963,
                -11.842300415039062
            ]
        },
        {
            "mesh" : 1,
            "name" : "baseballCap.002"
        },
        {
            "children" : [
                2
            ],
            "name" : "innerLiner",
            "rotation" : [
                -0.0804288238286972,
                0,
                0,
                0.996760368347168
            ],
            "scale" : [
                20.117799758911133,
                20.117876052856445,
                20.117876052856445
            ],
            "translation" : [
                0.005417000036686659,
                -2.9004299640655518,
                -11.842399597167969
            ]
        },
        {
            "mesh" : 2,
            "name" : "baseballCap.003"
        },
        {
            "children" : [
                4
            ],
            "name" : "mainCap",
            "rotation" : [
                -0.0804288238286972,
                0,
                0,
                0.996760368347168
            ],
            "scale" : [
                20.117799758911133,
                20.117876052856445,
                20.117876052856445
            ],
            "translation" : [
                0.005417000036686659,
                -2.9004199504852295,
                -11.842399597167969
            ]
        },
        {
            "mesh" : 3,
            "name" : "blinn1SG"
        },
        {
            "children" : [
                6
            ],
            "name" : "metalButton",
            "rotation" : [
                -0.0804288238286972,
                0,
                0,
                0.996760368347168
            ],
            "scale" : [
                20.117799758911133,
                20.117876052856445,
                20.117876052856445
            ],
            "translation" : [
                0.005417000036686659,
                -2.9003899097442627,
                -11.842399597167969
            ]
        },
        {
            "mesh" : 4,
            "name" : "plastic.001"
        },
        {
            "children" : [
                8
            ],
            "name" : "strapAdjust_female",
            "rotation" : [
                -0.0804288238286972,
                0,
                0,
                0.996760368347168
            ],
            "scale" : [
                20.117799758911133,
                20.117876052856445,
                20.117876052856445
            ],
            "translation" : [
                0.0054259998723864555,
                -2.9004499912261963,
                -11.842499732971191
            ]
        },
        {
            "mesh" : 5,
            "name" : "plastic"
        },
        {
            "children" : [
                10
            ],
            "name" : "strapAdjust_male",
            "rotation" : [
                -0.0804288238286972,
                0,
                0,
                0.996760368347168
            ],
            "scale" : [
                20.117799758911133,
                20.117876052856445,
                20.117876052856445
            ],
            "translation" : [
                0.005413000006228685,
                -2.900439977645874,
                -11.842399597167969
            ]
        },
        {
            "mesh" : 6,
            "name" : "baseballCap"
        },
        {
            "children" : [
                12
            ],
            "name" : "topButton",
            "rotation" : [
                -0.0804288238286972,
                0,
                0,
                0.996760368347168
            ],
            "scale" : [
                20.117799758911133,
                20.117876052856445,
                20.117876052856445
            ],
            "translation" : [
                0.005417000036686659,
                -2.9003899097442627,
                -11.842399597167969
            ]
        },
        {
            "children" : [
                1,
                3,
                5,
                7,
                9,
                11,
                13
            ],
            "name" : "Collada visual scene group",
            "rotation" : [
                0.7071068286895752,
                0,
                0,
                0.7071068286895752
            ]
        },
        {
            "children" : [
                14
            ],
            "name" : "Sketchfab_model",
            "rotation" : [
                -0.7071068286895752,
                0,
                0,
                0.7071068286895752
            ]
        },
        {
            "mesh" : 7,
            "name" : "art_surface",
            "rotation" : [
                0,
                -1,
                0,
                1.910685676922942e-15
            ],
            "scale" : [
                239.1212921142578,
                239.1212921142578,
                239.1212921142578
            ],
            "translation" : [
                6.786911487579346,
                114.94937896728516,
                252.11041259765625
            ]
        }
    ],
    "materials" : [
        {
            "name" : "baseballCap",
            "pbrMetallicRoughness" : {}
        },
        {
            "doubleSided" : true,
            "name" : "blinn1SG",
            "pbrMetallicRoughness" : {}
        },
        {
            "doubleSided" : true,
            "name" : "plastic",
            "pbrMetallicRoughness" : {}
        }
    ],
    "meshes" : [
        {
            "name" : "baseballCap.001",
            "primitives" : [
                {
                    "attributes" : {
                        "POSITION" : 0,
                        "NORMAL" : 1,
                        "TEXCOORD_0" : 2,
                        "TEXCOORD_1" : 3,
                        "TEXCOORD_2" : 4
                    },
                    "indices" : 5,
                    "material" : 0
                }
            ]
        },
        {
            "name" : "baseballCap.002",
            "primitives" : [
                {
                    "attributes" : {
                        "POSITION" : 6,
                        "NORMAL" : 7,
                        "TEXCOORD_0" : 8,
                        "TEXCOORD_1" : 9,
                        "TEXCOORD_2" : 10
                    },
                    "indices" : 11,
                    "material" : 0
                }
            ]
        },
        {
            "name" : "baseballCap.003",
            "primitives" : [
                {
                    "attributes" : {
                        "POSITION" : 12,
                        "NORMAL" : 13,
                        "TEXCOORD_0" : 14,
                        "TEXCOORD_1" : 15,
                        "TEXCOORD_2" : 16
                    },
                    "indices" : 17,
                    "material" : 0
                }
            ]
        },
        {
            "name" : "blinn1SG",
            "primitives" : [
                {
                    "attributes" : {
                        "POSITION" : 18,
                        "NORMAL" : 19,
                        "TEXCOORD_0" : 20
                    },
                    "indices" : 21,
                    "material" : 1
                }
            ]
        },
        {
            "name" : "plastic.001",
            "primitives" : [
                {
                    "attributes" : {
                        "POSITION" : 22,
                        "NORMAL" : 23,
                        "TEXCOORD_0" : 24
                    },
                    "indices" : 25,
                    "material" : 2
                }
            ]
        },
        {
            "name" : "plastic",
            "primitives" : [
                {
                    "attributes" : {
                        "POSITION" : 26,
                        "NORMAL" : 27,
                        "TEXCOORD_0" : 28
                    },
                    "indices" : 29,
                    "material" : 2
                }
            ]
        },
        {
            "name" : "baseballCap",
            "primitives" : [
                {
                    "attributes" : {
                        "POSITION" : 30,
                        "NORMAL" : 31,
                        "TEXCOORD_0" : 32,
                        "TEXCOORD_1" : 33,
                        "TEXCOORD_2" : 34
                    },
                    "indices" : 35,
                    "material" : 0
                }
            ]
        },
        {
            "name" : "Plane.002",
            "primitives" : [
                {
                    "attributes" : {
                        "POSITION" : 36,
                        "NORMAL" : 37,
                        "TEXCOORD_0" : 38
                    },
                    "indices" : 39
                }
            ]
        }
    ],
    "accessors" : [
        {
            "bufferView" : 0,
            "componentType" : 5126,
            "count" : 3714,
            "max" : [
                4.30580997467041,
                0.7432489991188049,
                8.23231029510498
            ],
            "min" : [
                -4.30417013168335,
                -1.7730400562286377,
                1.8872100114822388
            ],
            "type" : "VEC3"
        },
        {
            "bufferView" : 1,
            "componentType" : 5126,
            "count" : 3714,
            "type" : "VEC3"
        },
        {
            "bufferView" : 2,
            "componentType" : 5126,
            "count" : 3714,
            "type" : "VEC2"
        },
        {
            "bufferView" : 3,
            "componentType" : 5126,
            "count" : 3714,
            "type" : "VEC2"
        },
        {
            "bufferView" : 4,
            "componentType" : 5126,
            "count" : 3714,
            "type" : "VEC2"
        },
        {
            "bufferView" : 5,
            "componentType" : 5123,
            "count" : 21312,
            "type" : "SCALAR"
        },
        {
            "bufferView" : 6,
            "componentType" : 5126,
            "count" : 7322,
            "max" : [
                4.6697797775268555,
                2.086250066757202,
                4.771729946136475
            ],
            "min" : [
                -4.676630020141602,
                0.03229900076985359,
                -4.399940013885498
            ],
            "type" : "VEC3"
        },
        {
            "bufferView" : 7,
            "componentType" : 5126,
            "count" : 7322,
            "type" : "VEC3"
        },
        {
            "bufferView" : 8,
            "componentType" : 5126,
            "count" : 7322,
            "type" : "VEC2"
        },
        {
            "bufferView" : 9,
            "componentType" : 5126,
            "count" : 7322,
            "type" : "VEC2"
        },
        {
            "bufferView" : 10,
            "componentType" : 5126,
            "count" : 7322,
            "type" : "VEC2"
        },
        {
            "bufferView" : 11,
            "componentType" : 5123,
            "count" : 42240,
            "type" : "SCALAR"
        },
        {
            "bufferView" : 12,
            "componentType" : 5126,
            "count" : 11572,
            "max" : [
                4.741990089416504,
                5.843490123748779,
                4.820419788360596
            ],
            "min" : [
                -4.743060111999512,
                0.03946800157427788,
                -4.536280155181885
            ],
            "type" : "VEC3"
        },
        {
            "bufferView" : 13,
            "componentType" : 5126,
            "count" : 11572,
            "type" : "VEC3"
        },
        {
            "bufferView" : 14,
            "componentType" : 5126,
            "count" : 11572,
            "type" : "VEC2"
        },
        {
            "bufferView" : 15,
            "componentType" : 5126,
            "count" : 11572,
            "type" : "VEC2"
        },
        {
            "bufferView" : 16,
            "componentType" : 5126,
            "count" : 11572,
            "type" : "VEC2"
        },
        {
            "bufferView" : 17,
            "componentType" : 5123,
            "count" : 66816,
            "type" : "SCALAR"
        },
        {
            "bufferView" : 18,
            "componentType" : 5126,
            "count" : 114,
            "max" : [
                0.2940559983253479,
                5.738900184631348,
                0.4749700129032135
            ],
            "min" : [
                -0.2940559983253479,
                5.601940155029297,
                -0.10921599715948105
            ],
            "type" : "VEC3"
        },
        {
            "bufferView" : 19,
            "componentType" : 5126,
            "count" : 114,
            "type" : "VEC3"
        },
        {
            "bufferView" : 20,
            "componentType" : 5126,
            "count" : 114,
            "type" : "VEC2"
        },
        {
            "bufferView" : 21,
            "componentType" : 5123,
            "count" : 576,
            "type" : "SCALAR"
        },
        {
            "bufferView" : 22,
            "componentType" : 5126,
            "count" : 16481,
            "max" : [
                2.5170300006866455,
                0.9993630051612854,
                -4.015669822692871
            ],
            "min" : [
                -0.7686460018157959,
                0.10003600269556046,
                -4.929930210113525
            ],
            "type" : "VEC3"
        },
        {
            "bufferView" : 23,
            "componentType" : 5126,
            "count" : 16481,
            "type" : "VEC3"
        },
        {
            "bufferView" : 24,
            "componentType" : 5126,
            "count" : 16481,
            "type" : "VEC2"
        },
        {
            "bufferView" : 25,
            "componentType" : 5123,
            "count" : 86208,
            "type" : "SCALAR"
        },
        {
            "bufferView" : 26,
            "componentType" : 5126,
            "count" : 12265,
            "max" : [
                0.9006019830703735,
                0.9951220154762268,
                -4.107150077819824
            ],
            "min" : [
                -2.32600998878479,
                0.09323500096797943,
                -4.914639949798584
            ],
            "type" : "VEC3"
        },
        {
            "bufferView" : 27,
            "componentType" : 5126,
            "count" : 12265,
            "type" : "VEC3"
        },
        {
            "bufferView" : 28,
            "componentType" : 5126,
            "count" : 12265,
            "type" : "VEC2"
        },
        {
            "bufferView" : 29,
            "componentType" : 5123,
            "count" : 60096,
            "type" : "SCALAR"
        },
        {
            "bufferView" : 30,
            "componentType" : 5126,
            "count" : 418,
            "max" : [
                0.3573029935359955,
                5.941400051116943,
                0.553309977054596
            ],
            "min" : [
                -0.3573029935359955,
                5.64640998840332,
                -0.15652400255203247
            ],
            "type" : "VEC3"
        },
        {
            "bufferView" : 31,
            "componentType" : 5126,
            "count" : 418,
            "type" : "VEC3"
        },
        {
            "bufferView" : 32,
            "componentType" : 5126,
            "count" : 418,
            "type" : "VEC2"
        },
        {
            "bufferView" : 33,
            "componentType" : 5126,
            "count" : 418,
            "type" : "VEC2"
        },
        {
            "bufferView" : 34,
            "componentType" : 5126,
            "count" : 418,
            "type" : "VEC2"
        },
        {
            "bufferView" : 35,
            "componentType" : 5123,
            "count" : 2304,
            "type" : "SCALAR"
        },
        {
            "bufferView" : 36,
            "componentType" : 5126,
            "count" : 6400,
            "max" : [
                0.37934738397598267,
                -0.030540943145751953,
                1.0894114971160889
            ],
            "min" : [
                -0.3271671533584595,
                -0.3933377265930176,
                0.7101835608482361
            ],
            "type" : "VEC3"
        },
        {
            "bufferView" : 37,
            "componentType" : 5126,
            "count" : 6400,
            "type" : "VEC3"
        },
        {
            "bufferView" : 38,
            "componentType" : 5126,
            "count" : 6400,
            "type" : "VEC2"
        },
        {
            "bufferView" : 39,
            "componentType" : 5123,
            "count" : 9600,
            "type" : "SCALAR"
        }
    ],
    "bufferViews" : [
        {
            "buffer" : 0,
            "byteLength" : 44568,
            "byteOffset" : 0
        },
        {
            "buffer" : 0,
            "byteLength" : 44568,
            "byteOffset" : 44568
        },
        {
            "buffer" : 0,
            "byteLength" : 29712,
            "byteOffset" : 89136
        },
        {
            "buffer" : 0,
            "byteLength" : 29712,
            "byteOffset" : 118848
        },
        {
            "buffer" : 0,
            "byteLength" : 29712,
            "byteOffset" : 148560
        },
        {
            "buffer" : 0,
            "byteLength" : 42624,
            "byteOffset" : 178272
        },
        {
            "buffer" : 0,
            "byteLength" : 87864,
            "byteOffset" : 220896
        },
        {
            "buffer" : 0,
            "byteLength" : 87864,
            "byteOffset" : 308760
        },
        {
            "buffer" : 0,
            "byteLength" : 58576,
            "byteOffset" : 396624
        },
        {
            "buffer" : 0,
            "byteLength" : 58576,
            "byteOffset" : 455200
        },
        {
            "buffer" : 0,
            "byteLength" : 58576,
            "byteOffset" : 513776
        },
        {
            "buffer" : 0,
            "byteLength" : 84480,
            "byteOffset" : 572352
        },
        {
            "buffer" : 0,
            "byteLength" : 138864,
            "byteOffset" : 656832
        },
        {
            "buffer" : 0,
            "byteLength" : 138864,
            "byteOffset" : 795696
        },
        {
            "buffer" : 0,
            "byteLength" : 92576,
            "byteOffset" : 934560
        },
        {
            "buffer" : 0,
            "byteLength" : 92576,
            "byteOffset" : 1027136
        },
        {
            "buffer" : 0,
            "byteLength" : 92576,
            "byteOffset" : 1119712
        },
        {
            "buffer" : 0,
            "byteLength" : 133632,
            "byteOffset" : 1212288
        },
        {
            "buffer" : 0,
            "byteLength" : 1368,
            "byteOffset" : 1345920
        },
        {
            "buffer" : 0,
            "byteLength" : 1368,
            "byteOffset" : 1347288
        },
        {
            "buffer" : 0,
            "byteLength" : 912,
            "byteOffset" : 1348656
        },
        {
            "buffer" : 0,
            "byteLength" : 1152,
            "byteOffset" : 1349568
        },
        {
            "buffer" : 0,
            "byteLength" : 197772,
            "byteOffset" : 1350720
        },
        {
            "buffer" : 0,
            "byteLength" : 197772,
            "byteOffset" : 1548492
        },
        {
            "buffer" : 0,
            "byteLength" : 131848,
            "byteOffset" : 1746264
        },
        {
            "buffer" : 0,
            "byteLength" : 172416,
            "byteOffset" : 1878112
        },
        {
            "buffer" : 0,
            "byteLength" : 147180,
            "byteOffset" : 2050528
        },
        {
            "buffer" : 0,
            "byteLength" : 147180,
            "byteOffset" : 2197708
        },
        {
            "buffer" : 0,
            "byteLength" : 98120,
            "byteOffset" : 2344888
        },
        {
            "buffer" : 0,
            "byteLength" : 120192,
            "byteOffset" : 2443008
        },
        {
            "buffer" : 0,
            "byteLength" : 5016,
            "byteOffset" : 2563200
        },
        {
            "buffer" : 0,
            "byteLength" : 5016,
            "byteOffset" : 2568216
        },
        {
            "buffer" : 0,
            "byteLength" : 3344,
            "byteOffset" : 2573232
        },
        {
            "buffer" : 0,
            "byteLength" : 3344,
            "byteOffset" : 2576576
        },
        {
            "buffer" : 0,
            "byteLength" : 3344,
            "byteOffset" : 2579920
        },
        {
            "buffer" : 0,
            "byteLength" : 4608,
            "byteOffset" : 2583264
        },
        {
            "buffer" : 0,
            "byteLength" : 76800,
            "byteOffset" : 2587872
        },
        {
            "buffer" : 0,
            "byteLength" : 76800,
            "byteOffset" : 2664672
        },
        {
            "buffer" : 0,
            "byteLength" : 51200,
            "byteOffset" : 2741472
        },
        {
            "buffer" : 0,
            "byteLength" : 19200,
            "byteOffset" : 2792672
        }
    ],
    "buffers" : [
        {
            "byteLength" : 2811872,
            "uri" : "data:application/octet-stream;base64,"
        }
    ]
}
